HIERARCHY
ROOT hip
{
	OFFSET 0.000000 0.000000 0.000000 
	CHANNELS 6 Xposition Yposition Zposition Xrotation Zrotation Yrotation
	JOINT abdomen
	{
		OFFSET 0.000000 3.402643 0.000000 
		CHANNELS 3 Xrotation Zrotation Yrotation
		JOINT chest
		{
			OFFSET 0.000000 8.438565 -0.680529 
			CHANNELS 3 Xrotation Zrotation Yrotation
			JOINT neck
			{
				OFFSET 0.000000 10.207942 -0.272212 
				CHANNELS 3 Xrotation Zrotation Yrotation
				JOINT head
				{
					OFFSET 0.000000 3.130431 0.000000 
					CHANNELS 3 Xrotation Zrotation Yrotation
					End Site
					{
						OFFSET 0.000000 3.130435 0.000000 
					}
				}
			}
			JOINT lCollar
			{
				OFFSET 3.470700 6.669187 -0.816635 
				CHANNELS 3 Yrotation Zrotation Xrotation
				JOINT lShldr
				{
					OFFSET 3.198488 0.000000 0.000000 
					CHANNELS 3 Zrotation Yrotation Xrotation
					JOINT lForeArm
					{
						OFFSET 10.139888 0.000000 0.000000 
						CHANNELS 3 Yrotation Zrotation Xrotation
						JOINT lHand
						{
							OFFSET 8.370511 0.000000 0.000000 
							CHANNELS 3 Zrotation Yrotation Xrotation
							End Site
							{
								OFFSET 4.083176 0.000000 0.000000 
							}
						}
					}
				}
			}
			JOINT rCollar
			{
				OFFSET -3.470700 6.669187 -0.816635 
				CHANNELS 3 Yrotation Zrotation Xrotation
				JOINT rShldr
				{
					OFFSET -3.198488 0.000000 0.000000 
					CHANNELS 3 Zrotation Yrotation Xrotation
					JOINT rForeArm
					{
						OFFSET -10.139888 0.000000 0.000000 
						CHANNELS 3 Yrotation Zrotation Xrotation
						JOINT rHand
						{
							OFFSET -8.370511 0.000000 0.000000 
							CHANNELS 3 Zrotation Yrotation Xrotation
							End Site
							{
								OFFSET -4.083176 0.000000 0.000000 
							}
						}
					}
				}
			}
		}
	}
	JOINT lThigh
	{
		OFFSET 5.308129 -1.633274 1.361059 
		CHANNELS 3 Xrotation Zrotation Yrotation
		JOINT lShin
		{
			OFFSET -2.041588 -20.007561 0.000000 
			CHANNELS 3 Xrotation Zrotation Yrotation
			JOINT lFoot
			{
				OFFSET 0.000000 -19.190928 -1.224953 
				CHANNELS 3 Xrotation Yrotation Zrotation
				End Site
				{
					OFFSET 0.000000 -2.449906 4.627600 
				}
			}
		}
	}
	JOINT rThigh
	{
		OFFSET -5.308129 -1.633274 1.361059 
		CHANNELS 3 Xrotation Zrotation Yrotation
		JOINT rShin
		{
			OFFSET 2.041588 -20.007561 0.000000 
			CHANNELS 3 Xrotation Zrotation Yrotation
			JOINT rFoot
			{
				OFFSET 0.000000 -19.190928 -1.224953 
				CHANNELS 3 Xrotation Yrotation Zrotation
				End Site
				{
					OFFSET 0.000000 -2.449906 4.627600 
				}
			}
		}
	}
}
MOTION
Frames: 17
Frame Time: 0.016667
0.415311 43.006172 0.946671 -0.528559 3.886550 -4.059180 -21.116501 -0.839759 2.878530 17.439800 1.842970 1.198540 23.195101 -6.082240 2.206790 16.661200 1.813130 2.403010 2.000000 -2.000000 0.000000 93.779800 176.264008 6.231990 22.949499 -0.340743 0.053369 0.044894 -0.000610 -133.649994 -2.000000 2.000000 0.000000 -90.761002 -173.636002 2.903700 -30.303101 0.332885 0.068986 -0.056781 0.027538 -146.804993 7.596669 -6.361712 1.832069 0.777620 4.195425 -0.057363 -13.183744 14.357486 3.533445 2.144922 -5.827984 -4.036670 10.449140 -6.695827 -0.532737 -17.087263 -2.549705 0.063590 
0.422913 43.010681 0.952311 -0.645987 3.847410 -4.076450 -21.096399 -0.844503 2.921560 17.371401 1.813600 1.217500 23.178101 -6.094470 2.165070 16.641500 1.794250 2.388360 2.000000 -2.000000 0.000000 93.828598 176.274994 5.899980 23.027599 -0.340670 0.053540 0.044871 -0.001020 -133.796997 -2.000000 2.000000 0.000000 -90.682899 -173.606995 2.620420 -30.244499 0.332955 0.068866 -0.056697 0.027053 -146.628998 7.802767 -6.330343 1.838535 0.640241 4.198408 -0.076727 -12.995070 14.355799 3.470757 2.309179 -5.800104 -3.932806 10.372564 -6.670027 -0.530232 -17.062172 -2.589420 0.041634 
0.427358 43.002445 0.953982 -0.665385 3.613040 -4.094580 -21.065901 -0.829978 2.988210 17.391300 1.647870 1.256580 23.208700 -6.141910 1.982390 16.670000 1.708230 2.301660 2.000000 -2.000000 0.000000 94.072899 176.292999 6.398070 23.086201 -0.340616 0.053669 0.044831 0.007981 -134.070007 -2.000000 2.000000 0.000000 -90.497299 -173.636993 2.405650 -30.146799 0.333073 0.068664 -0.056565 0.026271 -146.345993 7.882716 -6.079288 1.812917 0.590452 4.196326 -0.056985 -13.177604 14.346594 3.536804 2.442312 -5.585580 -3.951452 10.186752 -6.541297 -0.507496 -17.005337 -2.548434 -0.011435 
0.431813 43.009521 0.953655 -0.685030 3.710670 -4.106740 -21.055799 -0.856272 3.029390 17.352100 1.686810 1.272800 23.186300 -6.045710 1.996310 16.689699 1.727110 2.306530 2.000000 -2.000000 0.000000 94.131599 176.223999 6.847130 23.203400 -0.340506 0.053926 0.044866 0.008664 -133.826004 -2.000000 2.000000 0.000000 -90.409401 -173.735001 2.181290 -30.068701 0.333166 0.068503 -0.056494 0.025839 -146.188995 7.840277 -6.154467 2.044522 0.706325 4.198140 -0.057078 -12.961232 14.196458 3.460118 2.335396 -5.563782 -3.665957 10.447552 -6.733997 -0.525932 -17.241564 -2.821839 0.028390 
0.452460 43.013508 0.957736 -0.763370 3.769200 -4.102810 -21.026800 -0.869154 3.022850 17.332600 1.686780 1.272230 23.173300 -5.999630 2.036390 16.680300 1.765310 2.324570 2.000000 -2.000000 0.000000 94.092400 176.272995 6.661690 23.076401 -0.340625 0.053647 0.044924 -0.000091 -133.464996 -2.000000 2.000000 0.000000 -90.468002 -173.675995 2.161610 -30.029600 0.333213 0.068422 -0.056538 0.026109 -146.287003 7.926867 -6.271588 1.851015 0.668812 4.194407 -0.057092 -13.065670 14.280256 3.484581 2.382614 -5.633451 -3.581450 10.540140 -6.789418 -0.532600 -17.356937 -2.849471 0.031773 
0.456612 43.010162 0.949981 -0.743747 3.710630 -4.012880 -21.027700 -0.838433 2.937830 17.322701 1.755020 1.229020 23.148701 -5.934380 2.102990 16.661200 1.813130 2.354190 2.000000 -2.000000 0.000000 94.043602 176.292999 6.661740 23.115499 -0.340588 0.053733 0.044938 0.000127 -133.386993 -2.000000 2.000000 0.000000 -90.565697 -173.705002 2.317930 -30.039400 0.333201 0.068442 -0.056592 0.026433 -146.404007 7.863409 -6.148153 2.090920 0.745832 4.201204 -0.057202 -12.977696 14.061453 3.412217 2.432207 -5.465577 -3.389351 10.394964 -6.814669 -0.521413 -17.251633 -3.304166 -0.066442 
0.460057 43.008366 0.951378 -0.694793 3.681370 -4.067960 -21.056499 -0.779994 2.926790 17.293200 1.842710 1.232890 23.222601 -5.842300 2.148230 16.710600 1.869840 2.378370 2.000000 -2.000000 0.000000 93.985001 176.263000 6.671440 23.086201 -0.340616 0.053669 0.044944 0.000236 -133.348007 -2.000000 2.000000 0.000000 -90.614502 -173.714996 2.239830 -29.971001 0.333283 0.068301 -0.056565 0.026271 -146.345993 7.853805 -6.128706 2.094721 0.677855 4.202843 -0.057155 -12.990694 14.046424 3.418620 2.424432 -5.575959 -3.586149 10.325070 -6.652544 -0.518064 -17.183985 -2.930134 -0.064255 
0.462487 43.009007 0.954493 -0.714310 3.613000 -4.078130 -21.027000 -0.734740 2.908430 17.322500 1.881770 1.231630 23.236601 -5.949080 2.110500 16.710100 1.822200 2.357880 2.000000 -2.000000 0.000000 93.985100 176.320999 6.905940 23.056900 -0.340643 0.053605 0.044908 -0.000364 -133.561996 -2.000000 2.000000 0.000000 -90.653603 -173.714996 2.269130 -30.000299 0.333248 0.068362 -0.056601 0.026487 -146.423996 7.876968 -6.043655 2.162402 0.676421 4.193186 -0.056931 -12.989980 14.018105 3.414879 2.489362 -5.437921 -3.246904 10.264455 -6.601760 -0.513402 -17.238453 -3.291156 -0.158627 
0.470810 43.013508 0.952123 -0.636009 3.583760 -4.072880 -21.035900 -0.726627 2.957930 17.342100 1.842800 1.253990 23.352200 -6.015910 1.989760 16.778000 1.764420 2.308040 2.000000 -2.000000 0.000000 94.033997 176.389999 7.013510 23.076401 -0.340625 0.053647 0.044897 -0.000555 -133.630997 -2.000000 2.000000 0.000000 -90.614502 -173.735001 2.259420 -30.078400 0.333154 0.068523 -0.056692 0.027026 -146.619003 7.763125 -6.010391 2.250021 0.764073 4.197919 -0.057095 -12.970181 14.035496 3.421198 2.341490 -5.391537 -3.226716 10.313786 -6.633798 -0.516649 -17.306196 -3.247431 -0.125032 
0.475433 43.015049 0.957226 -0.724190 3.730170 -4.129050 -20.987400 -0.757930 2.957910 17.361500 1.901340 1.251360 23.336201 -6.139060 1.975770 16.758101 1.726500 2.298830 2.000000 -2.000000 0.000000 93.994904 176.341003 6.915750 23.193600 -0.340515 0.053905 0.044883 -0.000801 -133.718994 -2.000000 2.000000 0.000000 -90.673103 -173.753998 2.396180 -30.058901 0.333178 0.068483 -0.056738 0.027296 -146.716995 7.792170 -6.167403 2.353256 0.880522 4.195465 -0.037609 -13.045856 13.912383 3.420370 2.401335 -5.612634 -3.411770 10.380849 -6.673746 -0.510158 -17.224405 -3.069128 -0.077101 
0.482835 43.012989 0.966007 -0.655657 3.691170 -4.133920 -21.035299 -0.731159 3.001520 17.361601 1.881840 1.271980 23.362900 -6.033630 1.981570 16.758400 1.764600 2.297680 2.000000 -2.000000 0.000000 94.073097 176.330002 7.237990 23.164301 -0.340542 0.053840 0.044845 0.008254 -133.973007 -2.000000 2.000000 0.000000 -90.575401 -173.667007 2.210410 -30.078400 0.333154 0.068523 -0.056601 0.026487 -146.423996 7.750365 -6.148451 2.301764 0.823971 4.196751 -0.047477 -13.080593 13.914179 3.405429 2.331310 -5.577531 -3.370986 10.416243 -6.656196 -0.529566 -17.263691 -3.130654 -0.112952 
0.476517 43.001804 0.971502 -0.714265 3.554410 -4.165290 -21.025000 -0.678840 3.001890 17.341999 1.881800 1.281100 23.288401 -5.917800 2.045680 16.710199 1.831730 2.330730 2.000000 -2.000000 0.000000 94.209900 176.192993 7.638080 23.369400 -0.340349 0.054290 0.044783 0.006943 -134.440994 -2.000000 2.000000 0.000000 -90.555901 -173.638000 2.083390 -29.990601 0.333259 0.068342 -0.056565 0.026271 -146.345993 7.856351 -5.976156 2.291641 0.764743 4.197793 -0.057144 -13.112607 13.942020 3.445681 2.430917 -5.441601 -3.209107 10.346031 -6.510926 -0.527542 -17.278709 -3.137951 -0.184253 
0.470442 43.008366 0.964131 -0.704541 3.632540 -4.136350 -21.015400 -0.715407 3.015630 17.332199 1.920780 1.278590 23.194201 -5.958550 1.995180 16.661100 1.803600 2.303220 2.000000 -2.000000 0.000000 94.161003 176.251999 7.315940 23.379200 -0.340340 0.054311 0.044797 0.007271 -134.324005 -2.000000 2.000000 0.000000 -90.555901 -173.666000 2.444790 -30.185900 0.333026 0.068745 -0.056729 0.027242 -146.697006 7.783165 -6.040558 2.400706 0.918716 4.196999 -0.047403 -13.093257 13.778745 3.401204 2.389679 -5.501305 -3.166117 10.383418 -6.542806 -0.521001 -17.260298 -3.328346 -0.202351 
0.474942 43.009262 0.965518 -0.743674 3.622740 -4.158230 -21.005699 -0.691587 2.995710 17.322300 1.950020 1.276610 23.187300 -6.148510 2.018490 16.650600 1.727460 2.315120 2.000000 -2.000000 0.000000 94.121902 176.173996 7.315770 23.447500 -0.340275 0.054461 0.044790 0.007107 -134.382996 -2.000000 2.000000 0.000000 -90.555901 -173.656998 2.259220 -30.107700 0.333119 0.068584 -0.056692 0.027026 -146.619003 7.868093 -6.060495 2.298825 0.812388 4.198764 -0.057136 -13.162390 13.922992 3.442490 2.483908 -5.495324 -3.183531 10.283099 -6.555717 -0.528983 -17.277397 -3.350573 -0.193399 
0.469670 43.006432 0.964139 -0.724158 3.691110 -4.128560 -21.006300 -0.744019 2.995040 17.322399 1.940270 1.267400 23.293900 -6.152950 2.038200 16.709200 1.726940 2.336420 2.000000 -2.000000 0.000000 94.170700 176.134995 7.149670 23.525700 -0.340201 0.054632 0.044773 0.006725 -134.518997 -2.000000 2.000000 0.000000 -90.516800 -173.598007 2.268830 -30.176100 0.333038 0.068725 -0.056651 0.026783 -146.531006 7.789987 -6.106035 2.459585 0.881182 4.205048 -0.047544 -13.026561 13.807639 3.384744 2.354450 -5.601086 -3.353413 10.507290 -6.585814 -0.535583 -17.361412 -3.067693 -0.113590 
0.469110 43.000648 0.962429 -0.733849 3.573930 -4.108160 -20.996099 -0.704233 2.989910 17.322399 1.930520 1.267950 23.191799 -6.065400 2.082610 16.651100 1.784630 2.347470 2.000000 -2.000000 0.000000 94.141403 176.173996 7.237650 23.545200 -0.340182 0.054675 0.044753 0.006206 -134.705002 -2.000000 2.000000 0.000000 -90.565697 -173.666000 2.249480 -30.107700 0.333119 0.068584 -0.056678 0.026945 -146.589996 7.818674 -5.964985 2.425575 0.861186 4.199227 -0.047421 -13.101921 13.803840 3.393908 2.441313 -5.493447 -3.390711 10.357972 -6.510310 -0.527479 -17.237286 -3.089905 -0.156073 
0.466383 43.003220 0.958172 -0.704610 3.720420 -4.059300 -21.035500 -0.725469 2.988870 17.283100 2.008440 1.262170 23.194401 -6.144770 2.066600 16.631300 1.756220 2.330700 2.000000 -2.000000 0.000000 94.102303 176.106003 7.217960 23.603800 -0.340126 0.054803 0.044751 0.006178 -134.714996 -2.000000 2.000000 0.000000 -90.634003 -173.617004 2.327480 -30.136999 0.333084 0.068644 -0.056674 0.026918 -146.580002 7.774284 -6.132967 2.398463 0.813208 4.208797 -0.047520 -13.054810 13.782284 3.375682 2.370828 -5.653823 -3.445651 10.434580 -6.534884 -0.521129 -17.237482 -3.088734 -0.155392 
